{"title":"Ghanchakkar 2013 Hindi Movies DVDScr New Source Sample Included ","uid":8633390,"size":735466694,"categoryP":"video","categoryS":"movies","magnet":"?xt=urn:btih:71c0642841bae594e786a3a61148d079d7431d03&amp;dn=Ghanchakkar+2013+Hindi+Movies+DVDScr+New+Source+Sample+Included+&amp;tr=udp%3A%2F%2Ftracker.openbittorrent.com%3A80&amp;tr=udp%3A%2F%2Fopen.demonii.com%3A1337&amp;tr=udp%3A%2F%2Ftracker.coppersurfer.tk%3A6969&amp;tr=udp%3A%2F%2Fexodus.desync.com%3A6969","seeders":0,"leechers":2,"uploader":"basicssom","files":2,"time":1372689728,"description":"Ghanchakkar 2013 Hindi Movies DVDScr New Source Sample Included ~ â˜»rDXâ˜»\n\nScreen Shots :\n &lt;a href=&quot;\nhttp://myimghosting.serveftp.com/13/GhanchakkarDS.html&quot; rel=&quot;nofollow&quot; target=&quot;_NEW&quot;&gt;\nhttp://myimghosting.serveftp.com/13/GhanchakkarDS.html&lt;/a&gt;\n &lt;a href=&quot;\nhttp://myimghost.cwahi.net/GhanchakkarDS.html&quot; rel=&quot;nofollow&quot; target=&quot;_NEW&quot;&gt;\nhttp://myimghost.cwahi.net/GhanchakkarDS.html&lt;/a&gt;\n &lt;a href=&quot;\nhttp://users2.jabry.com/myimghost/Ghanchakkar.jpg&quot; rel=&quot;nofollow&quot; target=&quot;_NEW&quot;&gt;\nhttp://users2.jabry.com/myimghost/Ghanchakkar.jpg&lt;/a&gt;\n\nFormat                                   : AVI\nFormat/Info                              : Audio Video Interleave\nFile size                                : 687 MiB\nDuration                                 : 2h 9mn\nOverall bit rate                         : 744 Kbps\nWriting library                          : MPlayer\n\nVideo\nID                                       : 0\nFormat                                   : MPEG-4 Visual\nFormat profile                           : Advanced Simple@L5\nFormat settings, BVOP                    : 1\nFormat settings, QPel                    : No\nFormat settings, GMC                     : No warppoints\nFormat settings, Matrix                  : Default (H.263)\nMuxing mode                              : Packed bitstream\nCodec ID                                 : XVID\nCodec ID/Hint                            : XviD\nDuration                                 : 2h 9mn\nBit rate                                 : 659 Kbps\nWidth                                    : 656 pixels\nHeight                                   : 256 pixels\nDisplay aspect ratio                     : 2.563\nFrame rate                               : 23.976 fps\nColor space                              : YUV\nChroma subsampling                       : 4:2:0\nBit depth                                : 8 bits\nScan type                                : Progressive\nCompression mode                         : Lossy\nBits/(Pixel*Frame)                       : 0.164\nStream size                              : 608 MiB (89%)\nWriting library                          : XviD 1.2.1 (UTC 2008-12-04)\n\nAudio\nID                                       : 1\nFormat                                   : MPEG Audio\nFormat version                           : Version 1\nFormat profile                           : Layer 3\nMode                                     : Joint stereo\nMode extension                           : MS Stereo\nCodec ID                                 : 55\nCodec ID/Hint                            : MP3\nDuration                                 : 2h 9mn\nBit rate mode                            : Constant\nBit rate                                 : 80.0 Kbps\nChannel(s)                               : 2 channels\nSampling rate                            : 32.0 KHz\nCompression mode                         : Lossy\nStream size                              : 73.9 MiB (11%)\nAlignment                                : Split accross interleaves\nInterleave, duration                     : 500 ms (11.99 video frames)\nInterleave, preload duration             : 500 ms\nWriting library                          : LAME3.99r\nEncoding settings                        : -m j -V 4 -q 2 -lowpass 13.5 -b 80","torrent":{"xt":"urn:btih:71c0642841bae594e786a3a61148d079d7431d03","amp;dn":"Ghanchakkar+2013+Hindi+Movies+DVDScr+New+Source+Sample+Included+","amp;tr":["udp%3A%2F%2Ftracker.openbittorrent.com%3A80","udp%3A%2F%2Fopen.demonii.com%3A1337","udp%3A%2F%2Ftracker.coppersurfer.tk%3A6969","udp%3A%2F%2Fexodus.desync.com%3A6969"],"infoHash":"71c0642841bae594e786a3a61148d079d7431d03","infoHashBuffer":{"type":"Buffer","data":[113,192,100,40,65,186,229,148,231,134,163,166,17,72,208,121,215,67,29,3]},"announce":[],"urlList":[]}}